# xmcd
#
# Track frame offsets:
#	150
#	11557
#	21287
#	37592
#	50765
#	62080
#	76095
#	86460
#	98357
#	109815
#	125187
#	139580
#	150100
#	165400
#	175772
#	188992
#	206567
#	218177
#	230642
#	247407
#
# Disc length: 3444
#
# Revision: 2
# Processed by: cddbd v1.5.1PL0 Copyright (c) Steve Scherf et al.
# Submitted via: CDex 1.40Release
# Normalized: r0:TDELIM( - ),TSWAP
#
DISCID=020d7214
DTITLE=Various Artist - The Duets, The Groups, The Voices
DYEAR=1900
DGENRE=Country
TTITLE0=Don Gibson - Oh lonesome me
TTITLE1=The Louvin Brothers - I don't believe you've meet my baby
TTITLE2=Lee Greenwood - Someone's gonna love you
TTITLE3=Carl and Pearl Butler - Don't let me cross over
TTITLE4=Stonewall Jackson - Waterloo
TTITLE5=Eddy Raven and Jo-El Sonnier - Jambalaya
TTITLE6=Jim Ed Brown - Pop a top
TTITLE7=Jim Ed Brown - Queen of the house
TTITLE8=Merle Kilgore - Love has made you beautiful
TTITLE9=Charlie Rich - Janie Fricke - On my knees
TTITLE10=Margo Smith - It only hurts for a little while
TTITLE11=Faron Young - Live fast, love hard, die young
TTITLE12=Lee Greenwood - Going going gone
TTITLE13=Warner Mack - The bridge washed out
TTITLE14=Bobby Helms - My special angel
TTITLE15=Al Hirt and Ace Cannon - Always on my mind
TTITLE16=Kitty Wells - Heartbreak USA
TTITLE17=Jack Blanchard and Misty Morgan - Tennessee bird walk
TTITLE18=The Getlin Brothers - Just a closer walk with thee
TTITLE19=Johnny and Jonie Mosby - Don't call me from a honky tonk
EXTD=ID3G: 2
EXTT0=
EXTT1=
EXTT2=
EXTT3=
EXTT4=
EXTT5=
EXTT6=
EXTT7=
EXTT8=
EXTT9=
EXTT10=
EXTT11=
EXTT12=
EXTT13=
EXTT14=
EXTT15=
EXTT16=
EXTT17=
EXTT18=
EXTT19=
PLAYORDER=
